<?xml version="1.0" encoding="UTF-8" standalone="no"?><!DOCTYPE svg PUBLIC "-//W3C//DTD SVG 1.1//EN" "http://www.w3.org/Graphics/SVG/1.1/DTD/svg11.dtd"><svg width="100%" height="100%" viewBox="0 0 1000 1000" version="1.1" xmlns="http://www.w3.org/2000/svg" xmlns:xlink="http://www.w3.org/1999/xlink" xml:space="preserve" xmlns:serif="http://www.serif.com/" style="fill-rule:evenodd;clip-rule:evenodd;stroke-linejoin:round;stroke-miterlimit:2;"><rect id="Logo" x="0" y="0" width="1000" height="1000" style="fill:none;"/><g id="logo"><path d="M500,0l-465.5,166l71,615.5l394.5,218.5l394.5,-218.5l71,-615.5l-465.5,-166Z" style="fill:#fff;fill-rule:nonzero;"/><path d="M500,0l0,111l0,-0.5l0,889.5l394.5,-218.5l71,-615.5l-465.5,-166Z" style="fill:#f4f5f8;fill-rule:nonzero;"/><path d="M518.193,348.015c-3.792,-6.157 -10.506,-9.907 -17.738,-9.907c-7.231,0 -13.945,3.75 -17.738,9.907l-173.784,282.117c-3.959,6.427 -4.131,14.494 -0.45,21.085c3.681,6.591 10.639,10.675 18.188,10.675l347.568,-0c7.55,-0 14.508,-4.084 18.189,-10.675c3.681,-6.591 3.509,-14.658 -0.451,-21.085l-173.784,-282.117Zm-17.738,10.927l173.784,282.116l-347.568,0l173.784,-282.116Z" style="fill:#373737;"/><circle cx="500.455" cy="358.942" r="50" style="fill:url(#_Linear1);"/><path d="M500.455,288.108c-39.094,0 -70.833,31.74 -70.833,70.834c0,39.094 31.739,70.833 70.833,70.833c39.094,-0 70.834,-31.739 70.834,-70.833c-0,-39.094 -31.74,-70.834 -70.834,-70.834Zm0,20.834c27.596,-0 50,22.404 50,50c0,27.595 -22.404,50 -50,50c-27.595,-0 -50,-22.405 -50,-50c0,-27.596 22.405,-50 50,-50Z" style="fill:#373737;"/><circle cx="331.567" cy="641.058" r="50" style="fill:url(#_Linear2);"/><path d="M331.567,570.225c-39.094,0 -70.833,31.739 -70.833,70.833c-0,39.094 31.739,70.834 70.833,70.834c39.094,-0 70.833,-31.74 70.833,-70.834c0,-39.094 -31.739,-70.833 -70.833,-70.833Zm-0,20.833c27.596,0 50,22.405 50,50c-0,27.596 -22.404,50 -50,50c-27.596,0 -50,-22.404 -50,-50c-0,-27.595 22.404,-50 50,-50Z" style="fill:#373737;"/><circle cx="668.433" cy="641.058" r="50" style="fill:url(#_Linear3);"/><path d="M668.433,570.225c-39.094,0 -70.833,31.739 -70.833,70.833c-0,39.094 31.739,70.834 70.833,70.834c39.094,-0 70.833,-31.74 70.833,-70.834c0,-39.094 -31.739,-70.833 -70.833,-70.833Zm0,20.833c27.596,0 50,22.405 50,50c0,27.596 -22.404,50 -50,50c-27.596,0 -50,-22.404 -50,-50c0,-27.595 22.404,-50 50,-50Z" style="fill:#373737;"/></g><defs><linearGradient id="_Linear1" x1="0" y1="0" x2="1" y2="0" gradientUnits="userSpaceOnUse" gradientTransform="matrix(-100,1.01064e-13,-1.01064e-13,-100,550.455,358.942)"><stop offset="0" style="stop-color:#2dd36f;stop-opacity:1"/><stop offset="1" style="stop-color:#3dc2ff;stop-opacity:1"/></linearGradient><linearGradient id="_Linear2" x1="0" y1="0" x2="1" y2="0" gradientUnits="userSpaceOnUse" gradientTransform="matrix(-100,2.34291e-13,-2.34291e-13,-100,381.567,641.058)"><stop offset="0" style="stop-color:#3dc2ff;stop-opacity:1"/><stop offset="1" style="stop-color:#5260ff;stop-opacity:1"/></linearGradient><linearGradient id="_Linear3" x1="0" y1="0" x2="1" y2="0" gradientUnits="userSpaceOnUse" gradientTransform="matrix(100,-2.27374e-13,2.27374e-13,100,618.433,641.058)"><stop offset="0" style="stop-color:#ffc409;stop-opacity:1"/><stop offset="1" style="stop-color:#eb445a;stop-opacity:1"/></linearGradient></defs></svg>